<svg width="182" height="44" viewBox="0 0 182 44" fill="none" xmlns="http://www.w3.org/2000/svg">
<path d="M72.3504 33.832V11.656H87.3993V15.848H77.3667V20.2H86.2739V24.296H77.3667V29.64H88.1389V33.832H72.3504Z" fill="#633EAB"/>
<path d="M90.3488 25.416C90.3488 24.2 90.5418 23.0587 90.9276 21.992C91.335 20.904 91.9138 19.9653 92.6641 19.176C93.4144 18.3653 94.3254 17.7253 95.3973 17.256C96.4692 16.7867 97.6911 16.552 99.0631 16.552C99.9634 16.552 100.789 16.6373 101.539 16.808C102.289 16.9573 103.018 17.1813 103.726 17.48L102.729 21.288C102.279 21.1173 101.786 20.968 101.25 20.84C100.714 20.712 100.113 20.648 99.4489 20.648C98.0341 20.648 96.9729 21.0853 96.2655 21.96C95.5795 22.8347 95.2365 23.9867 95.2365 25.416C95.2365 26.9307 95.5581 28.104 96.2012 28.936C96.8657 29.768 98.0126 30.184 99.6419 30.184C100.221 30.184 100.842 30.1307 101.507 30.024C102.171 29.9173 102.782 29.7467 103.34 29.512L104.015 33.416C103.458 33.6507 102.761 33.8533 101.925 34.024C101.089 34.1947 100.167 34.28 99.1595 34.28C97.616 34.28 96.2869 34.056 95.1722 33.608C94.0575 33.1387 93.1357 32.5093 92.4068 31.72C91.6994 30.9307 91.1742 30.0027 90.8312 28.936C90.5096 27.848 90.3488 26.6747 90.3488 25.416Z" fill="#633EAB"/>
<path d="M122.235 25.384C122.235 26.7067 122.042 27.9227 121.656 29.032C121.27 30.12 120.713 31.0587 119.984 31.848C119.255 32.616 118.376 33.2133 117.347 33.64C116.34 34.0667 115.203 34.28 113.939 34.28C112.695 34.28 111.559 34.0667 110.53 33.64C109.523 33.2133 108.654 32.616 107.925 31.848C107.197 31.0587 106.629 30.12 106.221 29.032C105.814 27.9227 105.61 26.7067 105.61 25.384C105.61 24.0613 105.814 22.856 106.221 21.768C106.65 20.68 107.229 19.752 107.958 18.984C108.708 18.216 109.587 17.6187 110.594 17.192C111.623 16.7653 112.738 16.552 113.939 16.552C115.161 16.552 116.275 16.7653 117.283 17.192C118.312 17.6187 119.191 18.216 119.92 18.984C120.648 19.752 121.217 20.68 121.624 21.768C122.031 22.856 122.235 24.0613 122.235 25.384ZM117.347 25.384C117.347 23.912 117.047 22.76 116.447 21.928C115.868 21.0747 115.032 20.648 113.939 20.648C112.845 20.648 111.999 21.0747 111.398 21.928C110.798 22.76 110.498 23.912 110.498 25.384C110.498 26.856 110.798 28.0293 111.398 28.904C111.999 29.7573 112.845 30.184 113.939 30.184C115.032 30.184 115.868 29.7573 116.447 28.904C117.047 28.0293 117.347 26.856 117.347 25.384Z" fill="#633EAB"/>
<path d="M132.699 34.152C131.306 34.1307 130.169 33.9813 129.29 33.704C128.433 33.4267 127.747 33.0427 127.232 32.552C126.739 32.04 126.396 31.432 126.204 30.728C126.032 30.0027 125.946 29.192 125.946 28.296V9.768L130.737 9V27.336C130.737 27.7627 130.77 28.1467 130.834 28.488C130.898 28.8293 131.016 29.1173 131.188 29.352C131.381 29.5867 131.649 29.7787 131.992 29.928C132.335 30.0773 132.795 30.1733 133.374 30.216L132.699 34.152Z" fill="#633EAB"/>
<path d="M135.317 25.544C135.317 24.0507 135.542 22.7493 135.992 21.64C136.464 20.5093 137.074 19.5707 137.825 18.824C138.575 18.0773 139.433 17.512 140.397 17.128C141.383 16.744 142.391 16.552 143.42 16.552C145.821 16.552 147.718 17.288 149.111 18.76C150.505 20.2107 151.202 22.3547 151.202 25.192C151.202 25.4693 151.191 25.7787 151.169 26.12C151.148 26.44 151.127 26.728 151.105 26.984H140.236C140.344 27.9653 140.805 28.744 141.619 29.32C142.434 29.896 143.527 30.184 144.899 30.184C145.778 30.184 146.635 30.1093 147.472 29.96C148.329 29.7893 149.026 29.5867 149.562 29.352L150.205 33.224C149.948 33.352 149.605 33.48 149.176 33.608C148.747 33.736 148.265 33.8427 147.729 33.928C147.214 34.0347 146.657 34.12 146.057 34.184C145.456 34.248 144.856 34.28 144.256 34.28C142.734 34.28 141.405 34.056 140.269 33.608C139.154 33.16 138.221 32.552 137.471 31.784C136.742 30.9947 136.196 30.0667 135.831 29C135.488 27.9333 135.317 26.7813 135.317 25.544ZM146.571 23.72C146.55 23.3147 146.475 22.92 146.346 22.536C146.239 22.152 146.057 21.8107 145.799 21.512C145.564 21.2133 145.253 20.968 144.867 20.776C144.502 20.584 144.042 20.488 143.484 20.488C142.948 20.488 142.487 20.584 142.102 20.776C141.716 20.9467 141.394 21.1813 141.137 21.48C140.88 21.7787 140.676 22.1307 140.526 22.536C140.397 22.92 140.301 23.3147 140.236 23.72H146.571Z" fill="#633EAB"/>
<path d="M154.738 12.808L159.529 12.04V17H165.285V20.968H159.529V26.888C159.529 27.8907 159.701 28.6907 160.044 29.288C160.408 29.8853 161.126 30.184 162.198 30.184C162.713 30.184 163.238 30.1413 163.774 30.056C164.331 29.9493 164.835 29.8107 165.285 29.64L165.961 33.352C165.382 33.5867 164.739 33.7893 164.031 33.96C163.324 34.1307 162.456 34.216 161.427 34.216C160.119 34.216 159.036 34.0453 158.179 33.704C157.321 33.3413 156.635 32.8507 156.121 32.232C155.606 31.592 155.242 30.824 155.028 29.928C154.835 29.032 154.738 28.04 154.738 26.952V12.808Z" fill="#633EAB"/>
<path d="M175.022 30.504C175.494 30.504 175.944 30.4933 176.373 30.472C176.801 30.4507 177.144 30.4187 177.402 30.376V26.76C177.209 26.7173 176.919 26.6747 176.534 26.632C176.148 26.5893 175.794 26.568 175.472 26.568C175.022 26.568 174.593 26.6 174.186 26.664C173.8 26.7067 173.457 26.8027 173.157 26.952C172.857 27.1013 172.621 27.304 172.45 27.56C172.278 27.816 172.193 28.136 172.193 28.52C172.193 29.2667 172.439 29.7893 172.932 30.088C173.447 30.3653 174.143 30.504 175.022 30.504ZM174.636 16.552C176.051 16.552 177.23 16.712 178.173 17.032C179.117 17.352 179.867 17.8107 180.424 18.408C181.003 19.0053 181.41 19.7307 181.646 20.584C181.882 21.4373 182 22.3867 182 23.432V33.352C181.314 33.5013 180.36 33.672 179.138 33.864C177.916 34.0773 176.437 34.184 174.701 34.184C173.607 34.184 172.611 34.088 171.71 33.896C170.831 33.704 170.07 33.3947 169.427 32.968C168.784 32.52 168.291 31.944 167.948 31.24C167.605 30.536 167.433 29.672 167.433 28.648C167.433 27.6667 167.626 26.8347 168.012 26.152C168.42 25.4693 168.955 24.9253 169.62 24.52C170.285 24.1147 171.046 23.8267 171.903 23.656C172.761 23.464 173.65 23.368 174.572 23.368C175.194 23.368 175.74 23.4 176.212 23.464C176.705 23.5067 177.102 23.5707 177.402 23.656V23.208C177.402 22.3973 177.155 21.7467 176.662 21.256C176.169 20.7653 175.312 20.52 174.09 20.52C173.275 20.52 172.471 20.584 171.678 20.712C170.885 20.8187 170.199 20.9787 169.62 21.192L169.009 17.352C169.288 17.2667 169.631 17.1813 170.038 17.096C170.467 16.9893 170.928 16.904 171.421 16.84C171.914 16.7547 172.428 16.6907 172.964 16.648C173.522 16.584 174.079 16.552 174.636 16.552Z" fill="#633EAB"/>
<path d="M14.7131 1.84944L10.1159 10.5859C9.81907 11.15 10.0145 11.8552 10.5556 12.1723L17.754 16.392C18.3024 16.7135 18.9998 16.5158 19.3117 15.9502L28.1104 0.000469208H17.7258C16.4688 0.000469208 15.3126 0.709998 14.7131 1.84944Z" fill="#29A361"/>
<path d="M28.1102 0L19.3118 15.95C18.9993 16.5154 18.3024 16.7136 17.7542 16.3923L15.8753 15.2913C16.3333 15.3674 16.8099 15.1503 17.0525 14.7099L25.1687 0H28.1102Z" fill="#248F55"/>
<path d="M37.7376 8.45905L34.5668 1.94883C33.9851 0.754398 32.7998 0.000469208 31.5038 0.000469208H22.3361L29.375 12.3164C29.3519 12.3271 29.3287 12.3378 29.3056 12.3485C28.8629 12.5541 28.881 13.2091 29.3343 13.3886L35.4124 15.7959C35.6941 15.9074 36.01 15.7623 36.1182 15.4719L38.4613 9.17936C38.6345 8.71389 38.1796 8.26473 37.7376 8.45905Z" fill="#34CB79"/>
<path d="M38.4614 9.17899L36.1177 15.4715C36.01 15.7627 35.6936 15.9079 35.4122 15.7958L33.5731 15.0671L35.7654 9.17899C35.8901 8.84506 35.691 8.51988 35.4054 8.43458C35.1334 8.35326 34.9012 8.16954 34.7741 7.90858L31.8708 1.94875C31.2895 0.754706 30.1046 0 28.808 0H31.504C32.7996 0 33.9846 0.754706 34.5668 1.94875L37.7375 8.45945C38.18 8.26524 38.6342 8.71361 38.4614 9.17899Z" fill="#2FB86E"/>
<path d="M31.6125 33.5593C31.5272 33.1978 31.075 33.043 30.799 33.3275L26.0484 38.2268C25.8589 38.4223 25.8589 38.7391 26.0484 38.9345L30.8173 43.8526C31.0914 44.1353 31.539 43.9844 31.629 43.6291H38.642C39.9331 43.6291 41.1147 42.8809 41.6989 41.6934L45.7005 33.5592H31.6125V33.5593Z" fill="#29A361"/>
<path d="M37.5327 33.5594L39.8067 37.1079C40.3208 37.9101 40.3777 38.9353 39.9557 39.7928L39.0204 41.6935C38.4372 42.8806 37.2551 43.6293 35.9644 43.6293H38.642C39.9327 43.6293 41.1148 42.8806 41.6991 41.6935L45.7004 33.5595H37.5327V33.5594Z" fill="#248F55"/>
<path d="M22.042 42.6939V34.0356C22.042 33.3849 21.5304 32.8572 20.8993 32.8572H2.07777L6.92148 42.0281C7.52186 43.1649 8.67655 43.8723 9.93166 43.8723H20.8993C21.5303 43.8724 22.042 43.3448 22.042 42.6939Z" fill="#29A361"/>
<path d="M10.0601 32.8579L5.88013 40.0572L2.07777 32.8579H10.0601Z" fill="#248F55"/>
<path d="M22.0418 34.0356V42.6943C22.0418 43.3448 21.5303 43.8723 20.8995 43.8723H17.9017C18.5325 43.8723 19.0439 43.3448 19.0439 42.6943V34.0356C19.0439 33.3851 18.5325 32.8576 17.9017 32.8576H20.8995C21.5303 32.8575 22.0418 33.3851 22.0418 34.0356Z" fill="#248F55"/>
<path d="M12.8469 25.2066L12.0017 18.6467C11.96 18.3226 11.6713 18.0949 11.3571 18.1379L4.97192 19.0129C4.49109 19.0788 4.31191 19.682 4.64125 20.0176L0.611484 26.0077C-0.127376 27.106 -0.202364 28.54 0.417607 29.7138L4.80282 38.0167L11.9231 25.7507C11.9257 25.7526 11.9281 25.7546 11.9307 25.7566C12.3371 26.0747 12.9141 25.7282 12.8469 25.2066Z" fill="#34CB79"/>
<path d="M11.9303 25.7566C11.9283 25.7545 11.9255 25.7526 11.9235 25.7505L4.80292 38.0163L3.33849 35.2438L9.13406 25.2585L9.29477 24.9815C9.38267 24.8302 9.5544 24.7648 9.72237 24.7984C9.72322 24.7986 9.72407 24.7987 9.72492 24.7989C10.0822 24.8646 10.4488 24.5576 10.3939 24.1362L9.65144 18.3712L11.3566 18.138C11.671 18.0949 11.9602 18.3232 12.002 18.6464L12.8473 25.2071C12.9144 25.7285 12.3369 26.0747 11.9303 25.7566Z" fill="#2FB86E"/>
<path d="M47.6267 25.5569L42.1144 17.3197C41.7763 16.8144 41.1186 16.6615 40.603 16.9684L33.4194 21.2435C32.8492 21.5828 32.6743 22.3475 33.0373 22.9139L43.1641 38.7151L47.8625 29.1643C48.4311 28.0083 48.3407 26.6239 47.6267 25.5569Z" fill="#34CB79"/>
<path d="M47.8626 29.1645L43.1635 38.7148L41.5874 36.2546L45.0754 29.1644C45.6441 28.0083 45.5539 26.6241 44.8396 25.5572L39.5223 17.6123L40.6034 16.9687C41.1187 16.6614 41.7768 16.8145 42.1145 17.32L47.6269 25.5573C48.3411 26.6242 48.4313 28.0085 47.8626 29.1645Z" fill="#2FB86E"/>
</svg>
